<?xml version="1.0" encoding="UTF-8"?>
<!DOCTYPE svg PUBLIC "-//W3C//DTD SVG 1.1//EN" "http://www.w3.org/Graphics/SVG/1.1/DTD/svg11.dtd">
<!-- Creator: CorelDRAW X8 -->
<svg xmlns="http://www.w3.org/2000/svg" xml:space="preserve" width="21.0818mm" height="16.8486mm" version="1.1" style="shape-rendering:geometricPrecision; text-rendering:geometricPrecision; image-rendering:optimizeQuality; fill-rule:evenodd; clip-rule:evenodd"
viewBox="0 0 2108 1685"
 xmlns:xlink="http://www.w3.org/1999/xlink">
 <defs>
  <style type="text/css">
   <![CDATA[
    .str4 {stroke:#4D4D4D;stroke-width:8.46}
    .str2 {stroke:#4D4D4D;stroke-width:42.33}
    .str0 {stroke:#4D4D4D;stroke-width:42.33;stroke-linejoin:round}
    .str3 {stroke:#4D4D4D;stroke-width:42.33;stroke-linecap:round}
    .str5 {stroke:#4D4D4D;stroke-width:42.33;stroke-linecap:round}
    .str1 {stroke:#4D4D4D;stroke-width:42.33;stroke-linecap:round;stroke-linejoin:round}
    .fil0 {fill:none}
    .fil1 {fill:#4D4D4D;fill-rule:nonzero}
   ]]>
  </style>
 </defs>
 <g id="Слой_x0020_1">
  <metadata id="CorelCorpID_0Corel-Layer"/>
  <g id="_1735883451584">
   <g>
    <path class="fil0 str0" d="M834 836l0 0c48,0 88,39 88,87l0 118 -175 0 0 -118c0,-48 39,-87 87,-87z"/>
    <line class="fil0 str1" x1="1673" y1="1675" x2="13" y2= "1675" />
    <line class="fil0 str2" x1="199" y1="622" x2="723" y2= "622" />
    <line class="fil0 str2" x1="1477" y1="622" x2="953" y2= "622" />
    <line class="fil0 str2" x1="143" y1="708" x2="637" y2= "708" />
    <line class="fil0 str2" x1="1532" y1="708" x2="1039" y2= "708" />
    <line class="fil0 str2" x1="80" y1="807" x2="554" y2= "807" />
    <line class="fil0 str2" x1="1595" y1="807" x2="1122" y2= "807" />
    <line class="fil0 str2" x1="160" y1="897" x2="160" y2= "1452" />
    <line class="fil0 str2" x1="1515" y1="897" x2="1515" y2= "1675" />
    <rect class="fil0 str2" x="305" y="1057" width="129" height="274" rx="21" ry="21"/>
    <rect class="fil0 str2" x="1241" y="1057" width="129" height="274" rx="21" ry="21"/>
    <path class="fil0 str2" d="M543 1415c-78,-28 -135,-1 -162,64 -87,-5 -109,37 -106,95"/>
    <path class="fil0 str2" d="M320 1479c-91,-118 -251,-19 -213,107"/>
    <polygon class="fil0 str1" points="1143,1379 1143,1675 543,1675 543,942 843,620 1143,942 "/>
    <polygon class="fil0 str0" points="543,942 843,620 1143,942 1253,940 843,496 431,940 "/>
    <path class="fil0 str2" d="M951 1675l-246 0 0 -417c0,-13 10,-23 23,-23l200 0c13,0 23,10 23,23l0 417z"/>
    <path class="fil0 str2" d="M92 1586l443 0 0 89 -462 0 0 -70c0,-11 8,-19 19,-19z"/>
    <polyline class="fil0 str0" points="803,539 252,539 22,899 471,895 "/>
    <polyline class="fil0 str0" points="872,539 1424,539 1654,899 1204,895 "/>
    <line class="fil0 str3" x1="777" y1="1410" x2="777" y2= "1464" />
   </g>
   <path class="fil1 str4" d="M1947 40c-35,-5 -58,16 -81,37l-7 7c-5,4 -10,5 -15,3 -29,-8 -58,-12 -86,-12 -63,0 -122,19 -169,51l-1 1c-46,32 -81,77 -96,129 -5,18 -8,38 -8,58 0,76 30,111 59,145 27,33 53,64 56,121l95 0 0 -3c0,-6 0,-12 1,-19 1,-7 7,-12 14,-12l80 0c8,0 15,6 15,14l0 20 97 0c1,-19 5,-38 12,-54 8,-22 21,-41 41,-57l-1 0c17,-14 29,-30 39,-46 10,-17 18,-34 25,-53 2,-5 8,-9 13,-9l29 0 2 0c3,0 4,0 5,0 0,-1 0,-2 0,-4l0 -1 0 0 0 -94 0 0c-1,-4 -2,-7 -22,-8 -2,0 -4,0 -6,1 -3,0 -5,0 -9,0 -7,0 -13,-5 -14,-12 -6,-20 -16,-40 -29,-58 -14,-19 -30,-37 -48,-50 -4,-3 -6,-7 -6,-11 -1,-16 0,-30 3,-43 2,-13 7,-25 13,-38 0,-2 0,-3 0,-4 0,0 0,1 -1,1zm-180 389c0,8 -7,14 -15,14 -8,0 -14,-6 -14,-14l0 -26 -30 0c-8,0 -15,-7 -15,-15 0,-8 7,-14 15,-14l57 0c17,0 27,-6 31,-14l0 0c1,-3 2,-6 2,-9 0,-4 -1,-7 -3,-10 -4,-8 -14,-15 -31,-15l-28 0c-26,0 -43,-14 -50,-32 -3,-7 -5,-15 -5,-22 0,-8 2,-16 5,-22 8,-19 25,-33 52,-34l0 -25c0,-8 6,-15 14,-15 8,0 15,7 15,15l0 25 32 0c8,0 15,7 15,15 0,8 -7,14 -15,14l-59 0c-15,0 -24,7 -27,16 -2,3 -3,7 -3,11 0,3 1,7 2,10 4,9 12,15 24,15l28 0c29,0 48,14 57,31 4,7 5,15 6,22 0,8 -2,16 -6,23l0 0c-8,16 -26,29 -54,30l0 26zm80 -373c28,-26 56,-52 103,-45l1 0c12,2 19,8 23,16 3,7 3,15 2,23 -1,1 -1,3 -2,4 -5,11 -9,22 -11,33 -2,9 -3,18 -2,29 18,15 35,33 48,52 13,18 23,38 30,57 2,0 3,0 5,0l1 0c44,3 47,16 49,32l0 1c1,1 1,2 1,3l0 95 0 0c0,10 -3,18 -9,25 -6,6 -14,9 -26,9l-20 0c-6,16 -14,33 -23,48 -12,19 -26,37 -45,53l0 0 0 0c-15,13 -26,28 -33,45 -6,17 -9,37 -10,57l0 1c0,8 -6,14 -14,14l-126 0c-8,0 -14,-6 -14,-14l0 -19 -52 0 0 2c0,6 0,12 -1,18 -1,8 -7,13 -14,13l-123 0c-8,0 -14,-6 -14,-14 0,-56 -25,-85 -51,-116 -31,-38 -65,-78 -65,-164 0,-22 4,-45 10,-66 17,-59 55,-109 107,-145l1 0c52,-36 116,-57 185,-57 28,0 58,4 87,11l2 -1z"/>
   <path class="fil0 str5" d="M1773 120c-162,-15 -348,191 -152,347"/>
   <path class="fil0 str5" d="M1862 469c41,-16 76,-54 101,-97"/>
  </g>
 </g>
</svg>
