<?xml version="1.0" encoding="UTF-8"?>
<!DOCTYPE svg PUBLIC "-//W3C//DTD SVG 1.1//EN" "http://www.w3.org/Graphics/SVG/1.1/DTD/svg11.dtd">
<!-- Creator: CorelDRAW X8 -->
<svg xmlns="http://www.w3.org/2000/svg" xml:space="preserve" width="100px" height="100px" version="1.1" style="shape-rendering:geometricPrecision; text-rendering:geometricPrecision; image-rendering:optimizeQuality; fill-rule:evenodd; clip-rule:evenodd"
viewBox="0 0 100 100"
 xmlns:xlink="http://www.w3.org/1999/xlink"
 data-name="Layer 1">
 <defs>
  <style type="text/css">
   <![CDATA[
    .fil0 {fill:#828282}
    .fil1 {fill:#E7A830}
   ]]>
  </style>
 </defs>
 <g id="Слой_x0020_1">
  <metadata id="CorelCorpID_0Corel-Layer"/>
  <g id="_824352336">
   <path class="fil0" d="M98 43c-3,-7 -9,-12 -17,-12 -9,0 -19,0 -28,0 -1,0 -3,0 -4,0 -3,1 -5,2 -5,6 0,4 3,6 6,6 10,0 16,5 19,13 1,3 1,7 0,10 -1,11 -10,17 -21,17 -8,0 -17,0 -25,0 -5,0 -8,3 -8,8 0,5 3,8 8,8 9,0 19,0 28,0 1,0 3,0 4,0 8,-3 12,-10 17,-15 8,-7 15,-14 22,-22 6,-5 7,-12 4,-19z"/>
   <path class="fil1" d="M38 5c-4,4 -7,7 -11,11 -6,7 -13,14 -20,20 -6,5 -8,12 -6,19 3,9 9,14 19,14 9,0 19,0 29,0 4,0 7,-2 7,-6 0,-4 -3,-6 -7,-7 -2,0 -3,0 -5,0 -6,-2 -10,-6 -13,-12l0 0c0,-2 -1,-3 -1,-5 -1,-15 10,-22 22,-22 9,0 18,0 26,0 5,0 7,-4 7,-9 0,-5 -3,-7 -8,-7 -8,-1 -17,-1 -26,-1 0,0 0,0 -1,0 -4,0 -9,2 -12,5l0 0z"/>
  </g>
 </g>
</svg>
